<svg xmlns="http://www.w3.org/2000/svg" xmlns:xlink="http://www.w3.org/1999/xlink" width="500" zoomAndPan="magnify" viewBox="0 0 375 30.000001" height="40" preserveAspectRatio="xMidYMid meet" version="1.0"><defs><g/></defs><g fill="#000000" fill-opacity="1"><g transform="translate(104.046778, 14.348368)"><g><path d="M 9.394531 0 L 11.128906 -5.636719 L 11.128906 0 L 14.890625 0 L 14.890625 -10.117188 L 9.539062 -10.117188 L 7.878906 -4.625 L 6.214844 -10.117188 L 0.867188 -10.117188 L 0.867188 0 L 4.625 0 L 4.625 -5.636719 L 6.359375 0 Z M 9.394531 0 "/></g></g></g><g fill="#000000" fill-opacity="1"><g transform="translate(119.803333, 14.348368)"><g><path d="M 8.023438 -10.117188 L 3.109375 -10.117188 L 0.144531 0 L 4.335938 0 L 4.625 -1.445312 L 6.503906 -1.445312 L 6.792969 0 L 10.984375 0 C 10.984375 0 8.039062 -10.0625 8.023438 -10.117188 Z M 5.058594 -3.757812 L 5.566406 -6.359375 L 6.070312 -3.757812 Z M 5.058594 -3.757812 "/></g></g></g><g fill="#000000" fill-opacity="1"><g transform="translate(130.934109, 14.348368)"><g><path d="M 10.839844 0 L 8.382812 -3.902344 C 8.382812 -3.902344 9.683594 -4.625 9.683594 -6.722656 C 9.683594 -8.816406 8.238281 -10.261719 5.058594 -10.261719 C 2.890625 -10.261719 0.867188 -10.117188 0.867188 -10.117188 L 0.867188 0 L 4.625 0 L 4.625 -3.324219 L 4.769531 -3.324219 L 6.503906 0 Z M 4.625 -5.925781 L 4.625 -7.515625 L 5.058594 -7.515625 C 5.566406 -7.515625 5.925781 -7.15625 5.925781 -6.722656 C 5.925781 -6.289062 5.566406 -5.925781 5.058594 -5.925781 Z M 4.625 -5.925781 "/></g></g></g><g fill="#000000" fill-opacity="1"><g transform="translate(141.486663, 14.348368)"><g><path d="M 0.578125 -5.058594 C 0.578125 -2.097656 2.890625 0.21875 5.925781 0.21875 C 8.671875 0.21875 9.972656 -1.375 9.972656 -1.375 L 8.238281 -4.121094 C 8.238281 -4.121094 7.371094 -3.324219 6.359375 -3.324219 C 5.347656 -3.324219 4.625 -4.046875 4.625 -5.058594 C 4.625 -6.070312 5.347656 -6.792969 6.359375 -6.792969 C 7.371094 -6.792969 8.238281 -6 8.238281 -6 L 9.972656 -8.746094 C 9.972656 -8.746094 8.671875 -10.335938 5.925781 -10.335938 C 2.890625 -10.335938 0.578125 -8.023438 0.578125 -5.058594 Z M 0.578125 -5.058594 "/></g></g></g><g fill="#000000" fill-opacity="1"><g transform="translate(151.750108, 14.348368)"><g><path d="M 4.625 -3.613281 L 8.382812 -3.613281 L 8.382812 -6.503906 L 4.625 -6.503906 L 4.625 -7.226562 L 8.671875 -7.226562 L 8.671875 -10.117188 L 0.867188 -10.117188 L 0.867188 0 L 8.960938 0 L 8.960938 -2.890625 L 4.625 -2.890625 Z M 4.625 -3.613281 "/></g></g></g><g fill="#000000" fill-opacity="1"><g transform="translate(161.146219, 14.348368)"><g><path d="M 7.082031 0 L 11.273438 0 L 11.273438 -10.117188 L 7.515625 -10.117188 L 7.515625 -5.636719 L 5.058594 -10.117188 L 0.867188 -10.117188 L 0.867188 0 L 4.625 0 L 4.625 -4.480469 Z M 7.082031 0 "/></g></g></g><g fill="#000000" fill-opacity="1"><g transform="translate(173.288884, 14.348368)"><g><path d="M 8.023438 -10.117188 L 3.109375 -10.117188 L 0.144531 0 L 4.335938 0 L 4.625 -1.445312 L 6.503906 -1.445312 L 6.792969 0 L 10.984375 0 C 10.984375 0 8.039062 -10.0625 8.023438 -10.117188 Z M 5.058594 -3.757812 L 5.566406 -6.359375 L 6.070312 -3.757812 Z M 5.058594 -3.757812 "/></g></g></g><g fill="#000000" fill-opacity="1"><g transform="translate(184.419663, 14.348368)"><g><path d="M 10.839844 0 L 8.382812 -3.902344 C 8.382812 -3.902344 9.683594 -4.625 9.683594 -6.722656 C 9.683594 -8.816406 8.238281 -10.261719 5.058594 -10.261719 C 2.890625 -10.261719 0.867188 -10.117188 0.867188 -10.117188 L 0.867188 0 L 4.625 0 L 4.625 -3.324219 L 4.769531 -3.324219 L 6.503906 0 Z M 4.625 -5.925781 L 4.625 -7.515625 L 5.058594 -7.515625 C 5.566406 -7.515625 5.925781 -7.15625 5.925781 -6.722656 C 5.925781 -6.289062 5.566406 -5.925781 5.058594 -5.925781 Z M 4.625 -5.925781 "/></g></g></g><g fill="#000000" fill-opacity="1"><g transform="translate(194.972221, 14.348368)"><g><path d="M 4.625 -10.117188 L 0.867188 -10.117188 L 0.867188 0 L 4.625 0 Z M 4.625 -10.117188 "/></g></g></g><g fill="#000000" fill-opacity="1"><g transform="translate(200.465338, 14.348368)"><g><path d="M 8.023438 -10.117188 L 3.109375 -10.117188 L 0.144531 0 L 4.335938 0 L 4.625 -1.445312 L 6.503906 -1.445312 L 6.792969 0 L 10.984375 0 C 10.984375 0 8.039062 -10.0625 8.023438 -10.117188 Z M 5.058594 -3.757812 L 5.566406 -6.359375 L 6.070312 -3.757812 Z M 5.058594 -3.757812 "/></g></g></g><g fill="#fba723" fill-opacity="1"><g transform="translate(191.324865, 26.574589)"><g><path d="M 0.289062 -10.117188 L 0.289062 -6.792969 L 3.035156 -6.792969 L 3.035156 0 L 6.792969 0 L 6.792969 -6.792969 L 9.539062 -6.792969 L 9.539062 -10.117188 Z M 0.289062 -10.117188 "/></g></g></g><g fill="#fba723" fill-opacity="1"><g transform="translate(201.154642, 26.574589)"><g><path d="M 4.625 -3.613281 L 8.382812 -3.613281 L 8.382812 -6.503906 L 4.625 -6.503906 L 4.625 -7.226562 L 8.671875 -7.226562 L 8.671875 -10.117188 L 0.867188 -10.117188 L 0.867188 0 L 8.960938 0 L 8.960938 -2.890625 L 4.625 -2.890625 Z M 4.625 -3.613281 "/></g></g></g><g fill="#fba723" fill-opacity="1"><g transform="translate(210.550753, 26.574589)"><g><path d="M 4.625 -10.117188 L 0.867188 -10.117188 L 0.867188 0 L 8.527344 0 L 8.527344 -3.324219 L 4.625 -3.324219 Z M 4.625 -10.117188 "/></g></g></g><g fill="#fba723" fill-opacity="1"><g transform="translate(219.368641, 26.574589)"><g><path d="M 4.625 -3.613281 L 8.382812 -3.613281 L 8.382812 -6.503906 L 4.625 -6.503906 L 4.625 -7.226562 L 8.671875 -7.226562 L 8.671875 -10.117188 L 0.867188 -10.117188 L 0.867188 0 L 8.960938 0 L 8.960938 -2.890625 L 4.625 -2.890625 Z M 4.625 -3.613281 "/></g></g></g><g fill="#fba723" fill-opacity="1"><g transform="translate(228.764749, 26.574589)"><g><path d="M 4.625 -10.117188 L 0.867188 -10.117188 L 0.867188 0 L 4.625 0 Z M 4.625 -10.117188 "/></g></g></g><g fill="#fba723" fill-opacity="1"><g transform="translate(234.257861, 26.574589)"><g><path d="M 7.804688 -5.058594 C 7.804688 -4.046875 7.082031 -3.324219 6.214844 -3.324219 C 5.347656 -3.324219 4.625 -4.046875 4.625 -5.058594 C 4.625 -6.070312 5.347656 -6.792969 6.214844 -6.792969 C 7.082031 -6.792969 7.804688 -6.070312 7.804688 -5.058594 Z M 11.855469 -5.058594 C 11.855469 -8.023438 9.539062 -10.335938 6.214844 -10.335938 C 2.890625 -10.335938 0.578125 -8.023438 0.578125 -5.058594 C 0.578125 -2.097656 2.890625 0.21875 6.214844 0.21875 C 9.539062 0.21875 11.855469 -2.097656 11.855469 -5.058594 Z M 11.855469 -5.058594 "/></g></g></g><g fill="#fba723" fill-opacity="1"><g transform="translate(246.689638, 26.574589)"><g><path d="M 3.976562 -2.746094 C 2.53125 -2.746094 1.519531 -3.6875 1.519531 -3.6875 L 0.144531 -1.519531 C 0.144531 -1.519531 1.445312 0.21875 4.625 0.21875 C 7.15625 0.21875 8.746094 -1.375 8.746094 -3.035156 C 8.746094 -6.214844 4.84375 -6.214844 4.84375 -6.9375 C 4.84375 -7.15625 5.058594 -7.371094 5.421875 -7.371094 C 6.433594 -7.371094 7.300781 -6.578125 7.300781 -6.578125 L 8.671875 -8.746094 C 8.671875 -8.746094 7.371094 -10.335938 4.769531 -10.335938 C 2.242188 -10.335938 0.652344 -8.746094 0.652344 -7.082031 C 0.652344 -3.902344 4.554688 -3.902344 4.554688 -3.179688 C 4.554688 -2.964844 4.335938 -2.746094 3.976562 -2.746094 Z M 3.976562 -2.746094 "/></g></g></g><g fill="#000000" fill-opacity="1"><g transform="translate(223.736918, 11.651726)"><g/></g></g></svg>