<svg xmlns="http://www.w3.org/2000/svg" xmlns:xlink="http://www.w3.org/1999/xlink" width="500" zoomAndPan="magnify" viewBox="0 0 375 374.999991" height="500" preserveAspectRatio="xMidYMid meet" version="1.0"><defs><g/><clipPath id="7e272510d2"><path d="M 0 1.746094 L 373.253906 1.746094 L 373.253906 375 L 0 375 Z M 0 1.746094 " clip-rule="nonzero"/></clipPath><clipPath id="57329903c4"><path d="M 186.628906 1.746094 L 373.253906 188.371094 L 186.628906 375 L 0 188.371094 L 186.628906 1.746094 " clip-rule="nonzero"/></clipPath></defs><g clip-path="url(#7e272510d2)"><g clip-path="url(#57329903c4)"><path fill="#fba723" d="M 0 1.746094 L 373.253906 1.746094 L 373.253906 375 L 0 375 Z M 0 1.746094 " fill-opacity="1" fill-rule="nonzero"/></g></g><g fill="#ffffff" fill-opacity="1"><g transform="translate(95.925997, 222.354579)"><g><path d="M 8.339844 0 L 29.351562 0 L 29.351562 -2.167969 C 22.015625 -4.167969 18.011719 -8.839844 18.011719 -27.851562 L 18.011719 -101.902344 L 60.707031 -31.6875 L 63.875 -31.6875 L 106.238281 -103.234375 L 106.238281 -21.179688 C 106.238281 -7.503906 104.570312 -3.667969 99.566406 -2.167969 L 99.566406 0 L 126.585938 0 L 126.585938 -2.167969 C 121.414062 -3.667969 119.914062 -7.503906 119.914062 -21.179688 L 119.914062 -88.894531 C 119.914062 -107.90625 123.417969 -112.574219 130.085938 -114.578125 L 130.085938 -116.746094 L 111.242188 -116.746094 L 68.546875 -44.863281 L 25.015625 -116.746094 L 4.835938 -116.746094 L 4.835938 -114.578125 C 11.507812 -112.574219 15.011719 -107.90625 15.011719 -88.894531 L 15.011719 -21.179688 C 15.011719 -7.503906 13.507812 -3.667969 8.339844 -2.167969 Z M 8.339844 0 "/></g></g></g><g fill="#ffffff" fill-opacity="1"><g transform="translate(186.916456, 284.486084)"><g><path d="M 33.1875 0 L 60.375 0 L 60.375 -2.167969 C 55.203125 -3.667969 53.703125 -7.503906 53.703125 -21.179688 L 53.703125 -114.078125 L 61.542969 -114.078125 C 76.550781 -114.078125 83.054688 -110.074219 88.726562 -98.066406 L 90.5625 -98.398438 L 89.558594 -116.746094 L 3.667969 -116.746094 L 2.667969 -98.398438 L 4.503906 -98.066406 C 10.171875 -110.074219 16.679688 -114.078125 31.6875 -114.078125 L 39.859375 -114.078125 L 39.859375 -21.179688 C 39.859375 -7.503906 38.359375 -3.667969 33.1875 -2.167969 Z M 33.1875 0 "/></g></g></g></svg>